<svg preserveAspectRatio="none" width="100%" height="100%" overflow="visible" style="display: block;" viewBox="0 0 484 36.4379" fill="none" xmlns="http://www.w3.org/2000/svg">
<g id="Logo">
<g id="Visa">
<path id="Vector 2" d="M434.986 28.9022L438.826 6.37508H444.966L441.125 28.9022H434.986ZM463.28 6.86927C461.518 6.23101 459.656 5.91073 457.782 5.92337C451.723 5.92337 447.454 8.97491 447.418 13.3493C447.384 16.5824 450.466 18.3857 452.792 19.4615C455.179 20.5648 455.981 21.2682 455.97 22.2532C455.955 23.7612 454.063 24.4496 452.301 24.4496C449.846 24.4496 448.543 24.1049 446.528 23.2693L445.738 22.9118L444.878 27.9483C446.31 28.5758 448.959 29.1206 451.708 29.1482C458.155 29.1482 462.34 26.1322 462.388 21.4613C462.411 18.9017 460.779 16.9536 457.239 15.348C455.095 14.3136 453.783 13.6125 453.796 12.5585C453.796 11.6241 454.908 10.6242 457.309 10.6242C458.882 10.589 460.445 10.8826 461.898 11.4862L462.448 11.746L463.28 6.86927V6.86927ZM479.053 6.37508H474.329C472.866 6.37508 471.771 6.77507 471.129 8.23473L462.049 28.7873H468.511C468.511 28.7873 469.546 26.0541 469.784 25.4542L477.527 25.4634C477.707 26.2403 478.263 28.7873 478.263 28.7873H484L479.053 6.37508ZM471.542 20.8568C472.049 19.5603 473.986 14.5676 473.986 14.5676C473.949 14.6273 474.489 13.2642 474.798 12.4195L475.213 14.3596C475.213 14.3596 476.388 19.7304 476.633 20.8568H471.542ZM429.776 6.37508L423.786 21.6832L423.148 18.5719C422.033 14.986 418.559 11.1012 414.674 9.15651L420.152 28.7873L426.625 28.7804L436.257 6.37508H429.746" fill="url(#paint0_linear_0_4)"/>
<path id="Vector 1" d="M417.926 6.37487H408.079L408 6.84264C415.694 8.70572 420.784 13.2066 422.898 18.6131L420.747 8.26899C420.376 6.84495 419.3 6.41969 417.968 6.37027" fill="url(#paint1_linear_0_4)"/>
</g>
<path id="Subtract" d="M22.3394 0.200869C23.0435 -0.155868 23.7369 0.08626 23.9821 0.570057L23.9919 0.590513L24.0038 0.610958C27.0013 5.79238 28.7632 11.717 28.7974 18.1443C28.8315 24.5646 27.1368 30.501 24.2004 35.71C23.8275 36.3018 23.2013 36.468 22.5671 36.1728C21.9893 35.7961 21.8329 35.1727 22.1317 34.5423C24.9606 29.7141 26.4844 24.12 26.4527 18.1568C26.4209 12.1781 24.7039 6.60556 21.9614 1.82498C21.6177 1.1271 21.8598 0.443911 22.3394 0.200869ZM15.0521 4.02C15.7433 3.69008 16.4168 3.93264 16.6577 4.40794L16.6734 4.43813L16.6912 4.46831C19.1647 8.5011 20.5392 13.1531 20.5661 18.1881C20.5928 23.2207 19.2697 27.885 16.8414 31.9425C16.4692 32.541 15.8403 32.7095 15.2032 32.4132C14.6233 32.0352 14.4668 31.4084 14.7697 30.7758C16.8349 27.1082 18.1197 22.7866 18.0954 18.2013C18.0711 13.6363 16.877 9.32102 14.632 5.65312C14.3283 5.02682 14.479 4.40228 15.0521 4.02ZM7.67856 7.80736C8.07528 7.52107 8.82008 7.62297 9.26181 8.21496C11.0871 11.1112 12.1895 14.6126 12.2088 18.2326C12.2286 21.9762 11.1638 25.3637 9.36769 28.2811C8.95224 28.8527 8.31667 29.0129 7.76827 28.689C7.17358 28.2533 7.06488 27.5113 7.34678 27.1121L7.36035 27.0925L7.37294 27.072C8.96343 24.5237 9.88104 21.4484 9.86406 18.2451C9.847 15.0426 8.89771 11.978 7.28104 9.4472C6.93065 8.89155 7.08796 8.23399 7.67856 7.80736ZM0.48045 11.5186C1.03553 11.1177 1.75203 11.2422 2.07612 11.6908L2.08202 11.6995L2.08792 11.7073C2.80544 12.6535 3.39397 13.7052 3.74568 14.7366C4.11586 15.9499 4.35215 17.124 4.35828 18.2744C4.3647 19.485 4.24877 20.6309 3.80456 21.7589C3.32069 22.9875 2.85217 23.9294 2.15799 24.8653L2.14635 24.881C1.82715 25.333 1.11189 25.4658 0.552617 25.0711C0.104901 24.7549 -0.0302988 24.05 0.350852 23.4931C0.919738 22.7679 1.33332 21.9196 1.60468 21.0909C1.88705 20.2283 2.01866 19.2482 2.01358 18.2869C2.00846 17.3254 1.86645 16.3461 1.57484 15.4865C1.29467 14.6606 0.872074 13.8168 0.295497 13.0977C-0.0914556 12.545 0.0361606 11.8395 0.48045 11.5186Z" fill="url(#paint2_linear_0_4)"/>
</g>
<defs>
<linearGradient id="paint0_linear_0_4" x1="449.337" y1="5.92301" x2="449.337" y2="29.1482" gradientUnits="userSpaceOnUse">
<stop stop-color="white"/>
<stop offset="1" stop-color="white" stop-opacity="0.75"/>
</linearGradient>
<linearGradient id="paint1_linear_0_4" x1="415.449" y1="6.37027" x2="415.449" y2="18.6131" gradientUnits="userSpaceOnUse">
<stop stop-color="white"/>
<stop offset="1" stop-color="white" stop-opacity="0.75"/>
</linearGradient>
<linearGradient id="paint2_linear_0_4" x1="14.3503" y1="0.0764163" x2="14.5435" y2="36.3614" gradientUnits="userSpaceOnUse">
<stop stop-color="white" stop-opacity="0.73"/>
<stop offset="1" stop-color="white"/>
</linearGradient>
</defs>
</svg>
