<svg preserveAspectRatio="none" width="100%" height="100%" overflow="visible" style="display: block;" viewBox="0 0 28.8938 36.4378" fill="none" xmlns="http://www.w3.org/2000/svg">
<g id="Logo">
<path id="Subtract" d="M22.3394 0.200869C23.0435 -0.155868 23.7369 0.08626 23.9821 0.570057L23.9919 0.590513L24.0038 0.610958C27.0013 5.79238 28.7632 11.717 28.7974 18.1443C28.8315 24.5646 27.1368 30.501 24.2004 35.71C23.8275 36.3018 23.2013 36.468 22.5671 36.1728C21.9893 35.7961 21.8329 35.1727 22.1317 34.5423C24.9606 29.7141 26.4844 24.12 26.4527 18.1568C26.4209 12.1781 24.7039 6.60556 21.9614 1.82498C21.6177 1.1271 21.8598 0.443911 22.3394 0.200869ZM15.0521 4.02C15.7433 3.69008 16.4168 3.93264 16.6577 4.40794L16.6734 4.43813L16.6912 4.46831C19.1647 8.5011 20.5392 13.1531 20.5661 18.1881C20.5928 23.2207 19.2697 27.885 16.8414 31.9425C16.4692 32.541 15.8403 32.7095 15.2032 32.4132C14.6233 32.0352 14.4668 31.4084 14.7697 30.7758C16.8349 27.1082 18.1197 22.7866 18.0954 18.2013C18.0711 13.6363 16.877 9.32102 14.632 5.65312C14.3283 5.02682 14.479 4.40228 15.0521 4.02ZM7.67856 7.80736C8.07528 7.52107 8.82008 7.62297 9.26181 8.21496C11.0871 11.1112 12.1895 14.6126 12.2088 18.2326C12.2286 21.9762 11.1638 25.3637 9.36769 28.2811C8.95224 28.8527 8.31667 29.0129 7.76827 28.689C7.17358 28.2533 7.06488 27.5113 7.34678 27.1121L7.36035 27.0925L7.37294 27.072C8.96343 24.5237 9.88104 21.4484 9.86406 18.2451C9.847 15.0426 8.89771 11.978 7.28104 9.4472C6.93065 8.89155 7.08796 8.23399 7.67856 7.80736ZM0.48045 11.5186C1.03553 11.1177 1.75203 11.2422 2.07612 11.6908L2.08202 11.6995L2.08792 11.7073C2.80544 12.6535 3.39397 13.7052 3.74568 14.7366C4.11586 15.9499 4.35215 17.124 4.35828 18.2744C4.3647 19.485 4.24877 20.6309 3.80456 21.7589C3.32069 22.9875 2.85217 23.9294 2.15799 24.8653L2.14635 24.881C1.82715 25.333 1.11189 25.4658 0.552617 25.0711C0.104901 24.7549 -0.0302988 24.05 0.350852 23.4931C0.919738 22.7679 1.33332 21.9196 1.60468 21.0909C1.88705 20.2283 2.01866 19.2482 2.01358 18.2869C2.00846 17.3254 1.86645 16.3461 1.57484 15.4865C1.29467 14.6606 0.872074 13.8168 0.295497 13.0977C-0.0914556 12.545 0.0361606 11.8395 0.48045 11.5186Z" fill="var(--fill-0, #172135)"/>
</g>
</svg>
