<svg preserveAspectRatio="none" width="100%" height="100%" overflow="visible" style="display: block;" viewBox="0 0 76 23.2252" fill="none" xmlns="http://www.w3.org/2000/svg">
<g id="Visa">
<path id="Vector 2" d="M26.9862 22.9792L30.8262 0.452071H36.966L33.1249 22.9792H26.9862ZM55.2796 0.946266C53.5176 0.308002 51.6563 -0.0122712 49.7823 0.000359518C43.723 0.000359518 39.4543 3.0519 39.4175 7.4263C39.3842 10.6594 42.4656 12.4627 44.7918 13.5385C47.179 14.6418 47.9813 15.3452 47.9698 16.3302C47.9549 17.8382 46.0631 18.5266 44.3011 18.5266C41.8461 18.5266 40.5427 18.1819 38.5279 17.3463L37.7384 16.9888L36.8775 22.0253C38.3095 22.6528 40.9588 23.1976 43.708 23.2252C50.1547 23.2252 54.3394 20.2092 54.3877 15.5383C54.4107 12.9787 52.7787 11.0306 49.2387 9.42497C47.0952 8.39056 45.7826 7.68946 45.7964 6.63551C45.7964 5.7011 46.9078 4.70122 49.3088 4.70122C50.8819 4.666 52.445 4.9596 53.8981 5.56322L54.4475 5.82295L55.2796 0.946266V0.946266ZM71.0532 0.452071H66.3294C64.8663 0.452071 63.7709 0.852063 63.1284 2.31173L54.0486 22.8643H60.5114C60.5114 22.8643 61.5458 20.1311 61.7837 19.5312L69.5269 19.5404C69.7073 20.3173 70.2624 22.8643 70.2624 22.8643H76L71.0532 0.452071ZM63.5422 14.9338C64.0491 13.6373 65.9857 8.64456 65.9857 8.64456C65.949 8.70433 66.4891 7.34121 66.7983 6.49645L67.2132 8.43658C67.2132 8.43658 68.3878 13.8074 68.6327 14.9338H63.5422ZM21.7762 0.452071L15.7859 15.7602L15.148 12.6489C14.0331 9.06296 10.5587 5.17819 6.67389 3.2335L12.1517 22.8643L18.6248 22.8573L28.2574 0.452071H21.7464" fill="var(--fill-0, #172135)"/>
<path id="Vector 1" d="M9.92571 0.451867H0.0792979L0 0.91963C7.6937 2.78271 12.7841 7.28356 14.8977 12.6901L12.7473 2.34598C12.3761 0.921946 11.3003 0.496687 9.96825 0.447266" fill="var(--fill-0, #172135)"/>
</g>
</svg>
