<svg preserveAspectRatio="none" width="100%" height="100%" overflow="visible" style="display: block;" viewBox="0 0 484.001 36.613" fill="none" xmlns="http://www.w3.org/2000/svg">
<g id="Logo">
<g id="Visa">
<path id="Vector 2" d="M434.987 29.0418L438.827 6.40598H444.967L441.126 29.0418H434.987ZM463.281 6.90256C461.519 6.26122 459.657 5.9394 457.783 5.95209C451.724 5.95209 447.455 9.01836 447.419 13.4139C447.385 16.6626 450.467 18.4746 452.793 19.5555C455.18 20.6642 455.982 21.371 455.971 22.3608C455.956 23.876 454.064 24.5677 452.302 24.5677C449.847 24.5677 448.544 24.2213 446.529 23.3817L445.739 23.0225L444.878 28.0833C446.311 28.7139 448.96 29.2613 451.709 29.289C458.156 29.289 462.34 26.2585 462.389 21.565C462.412 18.9931 460.78 17.0356 457.24 15.4222C455.096 14.3828 453.784 13.6783 453.797 12.6193C453.797 11.6803 454.909 10.6756 457.31 10.6756C458.883 10.6402 460.446 10.9353 461.899 11.5418L462.448 11.8028L463.281 6.90256V6.90256ZM479.054 6.40598H474.33C472.867 6.40598 471.772 6.8079 471.129 8.27461L462.05 28.9263H468.512C468.512 28.9263 469.547 26.18 469.785 25.5771L477.528 25.5864C477.708 26.3671 478.263 28.9263 478.263 28.9263H484.001L479.054 6.40598ZM471.543 20.9576C472.05 19.6549 473.987 14.638 473.987 14.638C473.95 14.6981 474.49 13.3284 474.799 12.4795L475.214 14.429C475.214 14.429 476.389 19.8258 476.634 20.9576H471.543ZM429.777 6.40598L423.787 21.7879L423.149 18.6617C422.034 15.0584 418.56 11.1549 414.675 9.20084L420.153 28.9263L426.626 28.9194L436.258 6.40598H429.747" fill="url(#paint0_linear_0_12)"/>
<path id="Vector 1" d="M417.927 6.40578H408.08L408.001 6.8758C415.695 8.74787 420.785 13.2704 422.899 18.703L420.748 8.30903C420.377 6.87812 419.301 6.45081 417.969 6.40115" fill="url(#paint1_linear_0_12)"/>
</g>
<path id="Subtract" d="M22.3403 0.201545C23.0444 -0.156928 23.7377 0.0865273 23.9829 0.572644L23.9937 0.593094L24.0056 0.614516C27.0029 5.82063 28.7641 11.7727 28.7982 18.2307C28.8322 24.6822 27.137 30.6473 24.2003 35.8816C23.8273 36.4761 23.2021 36.6429 22.5679 36.3464C21.9898 35.9678 21.8334 35.3416 22.1325 34.708C24.9617 29.8565 26.4851 24.2353 26.4535 18.2433C26.4218 12.2359 24.7048 6.63696 21.9622 1.83347C21.6186 1.13235 21.8607 0.445828 22.3403 0.201545ZM15.0529 4.03942C15.7441 3.70791 16.4177 3.9517 16.6585 4.42927L16.6743 4.46044L16.692 4.48964C19.1655 8.54168 20.5401 13.2157 20.5669 18.2748C20.5935 23.3316 19.2697 28.0185 16.8412 32.0957C16.4689 32.6971 15.8402 32.8671 15.2031 32.5693C14.6231 32.1895 14.4676 31.5598 14.7705 30.9241C16.8359 27.2388 18.1195 22.8955 18.0952 18.288C18.071 13.7013 16.8777 9.36573 14.6329 5.68036C14.3291 5.05106 14.4798 4.42355 15.0529 4.03942ZM7.67841 7.84553C8.07501 7.55767 8.8198 7.65939 9.26165 8.25406C11.0871 11.1643 12.1904 14.6829 12.2096 18.3205C12.2293 22.0819 11.1646 25.4855 9.3685 28.4169C8.95296 28.9915 8.31666 29.1525 7.76811 28.8268C7.17353 28.389 7.06482 27.6442 7.34663 27.2431L7.37375 27.2019C8.96426 24.6414 9.88179 21.5517 9.86487 18.333C9.8479 15.1149 8.89773 12.0352 7.28088 9.49222C6.93081 8.93406 7.08813 8.27415 7.67841 7.84553ZM0.480294 11.5745C1.03538 11.1716 1.75183 11.2969 2.07596 11.7476L2.08186 11.7554L2.08777 11.7642C2.80522 12.7148 3.39379 13.7709 3.74552 14.8071C4.11575 16.0264 4.35202 17.2064 4.35812 18.3625C4.36452 19.5789 4.2486 20.7302 3.8044 21.8635C3.32052 23.098 2.85196 24.0443 2.15783 24.9847L2.15201 24.9925L2.1462 25.0014C1.82687 25.4555 1.11174 25.5883 0.552456 25.1915C0.104752 24.8738 -0.0304253 24.1662 0.350695 23.6066C0.919531 22.8781 1.33314 22.0263 1.60453 21.1937C1.88705 20.3267 2.01851 19.3412 2.01342 18.375C2.00833 17.4088 1.86634 16.4248 1.57468 15.5609C1.29454 14.7313 0.872752 13.8839 0.296318 13.1615C-0.0908237 12.6061 0.0360286 11.8971 0.480294 11.5745Z" fill="var(--fill-0, white)"/>
</g>
<defs>
<linearGradient id="paint0_linear_0_12" x1="449.338" y1="5.95173" x2="449.338" y2="29.289" gradientUnits="userSpaceOnUse">
<stop stop-color="white"/>
<stop offset="1" stop-color="white" stop-opacity="0.75"/>
</linearGradient>
<linearGradient id="paint1_linear_0_12" x1="415.45" y1="6.40115" x2="415.45" y2="18.703" gradientUnits="userSpaceOnUse">
<stop stop-color="white"/>
<stop offset="1" stop-color="white" stop-opacity="0.75"/>
</linearGradient>
</defs>
</svg>
