<svg preserveAspectRatio="none" width="100%" height="100%" overflow="visible" style="display: block;" viewBox="0 0 844.4 361.177" fill="none" xmlns="http://www.w3.org/2000/svg">
<g id="Line">
<path id="line 8" d="M0.200018 139.2C25.1804 136.337 49.847 134.677 75.0334 134.866C98.0228 135.039 124.57 134.109 145.589 145.255C160.994 153.425 172.946 166.423 178.978 182.922C183.61 195.592 185.065 209.453 190.533 221.866C195.148 232.343 203.663 244.574 211.756 252.755C225.495 266.646 247.67 274.926 266.7 277.644C286.872 280.526 307.986 276.817 328.2 276.255C351.83 275.599 373.669 277.535 394.311 289.978C407.121 297.698 415.177 310.571 426.589 320.2C439.901 331.432 458.645 338.11 474.756 343.978C500.47 353.343 526.706 358.187 553.978 360.311C571.268 361.658 589.061 360.948 606.2 358.311C616.612 356.709 625.637 353.969 634.2 347.866C642.268 342.117 650.967 336.25 653.2 326.2" stroke="var(--stroke-0, white)" stroke-opacity="0.25" stroke-width="0.4" stroke-linecap="round"/>
<path id="line 7" d="M33.2 121.548C58.1804 118.685 82.847 117.026 108.033 117.215C131.023 117.387 157.57 116.457 178.589 127.603C193.994 135.773 205.946 148.771 211.978 165.27C216.61 177.94 218.065 191.801 223.533 204.215C228.148 214.691 236.663 226.922 244.756 235.103C258.495 248.994 280.67 257.274 299.7 259.992C319.872 262.874 340.986 259.165 361.2 258.603C384.83 257.947 406.669 259.884 427.311 272.326C440.121 280.047 448.177 292.919 459.589 302.548C472.901 313.78 491.645 320.458 507.756 326.326C533.47 335.691 559.706 340.535 586.978 342.659C604.268 344.006 622.061 343.296 639.2 340.659C649.612 339.057 658.637 336.317 667.2 330.215C675.268 324.465 683.967 318.598 686.2 308.548" stroke="var(--stroke-0, white)" stroke-opacity="0.25" stroke-width="0.4" stroke-linecap="round"/>
<path id="line 6" d="M65.2 100.548C90.1804 97.6848 114.847 96.0256 140.033 96.2146C163.023 96.3871 189.57 95.4573 210.589 106.603C225.994 114.773 237.946 127.771 243.978 144.27C248.61 156.94 250.065 170.801 255.533 183.215C260.148 193.691 268.663 205.922 276.756 214.103C290.495 227.994 312.67 236.274 331.7 238.992C351.872 241.874 372.986 238.165 393.2 237.603C416.83 236.947 438.669 238.884 459.311 251.326C472.121 259.047 480.177 271.919 491.589 281.548C504.901 292.78 523.645 299.458 539.756 305.326C565.47 314.691 591.706 319.535 618.978 321.659C636.268 323.006 654.061 322.296 671.2 319.659C681.612 318.057 690.637 315.317 699.2 309.215C707.268 303.465 715.967 297.598 718.2 287.548" stroke="var(--stroke-0, white)" stroke-opacity="0.25" stroke-width="0.4" stroke-linecap="round"/>
<path id="line 5" d="M87.2 79.5479C112.18 76.6848 136.847 75.0256 162.033 75.2146C185.023 75.3871 211.57 74.4573 232.589 85.6035C247.994 93.7728 259.946 106.771 265.978 123.27C270.61 135.94 272.065 149.801 277.533 162.215C282.148 172.691 290.663 184.922 298.756 193.103C312.495 206.994 334.67 215.274 353.7 217.992C373.872 220.874 394.986 217.165 415.2 216.603C438.83 215.947 460.669 217.884 481.311 230.326C494.121 238.047 502.177 250.919 513.589 260.548C526.901 271.78 545.645 278.458 561.756 284.326C587.47 293.691 613.706 298.535 640.978 300.659C658.268 302.006 676.061 301.296 693.2 298.659C703.612 297.057 712.637 294.317 721.2 288.215C729.268 282.465 737.967 276.598 740.2 266.548" stroke="var(--stroke-0, white)" stroke-opacity="0.25" stroke-width="0.4" stroke-linecap="round"/>
<path id="line 4" d="M104.2 64.1998C129.18 61.3367 153.847 59.6774 179.033 59.8664C202.023 60.039 228.57 59.1092 249.589 70.2553C264.994 78.4247 276.946 91.4231 282.978 107.922C287.61 120.592 289.065 134.453 294.533 146.866C299.148 157.343 307.663 169.574 315.756 177.755C329.495 191.646 351.67 199.926 370.7 202.644C390.872 205.526 411.986 201.817 432.2 201.255C455.83 200.599 477.669 202.535 498.311 214.978C511.121 222.698 519.177 235.571 530.589 245.2C543.901 256.432 562.645 263.11 578.756 268.978C604.47 278.343 630.706 283.187 657.978 285.311C675.268 286.658 693.061 285.948 710.2 283.311C720.612 281.709 729.637 278.969 738.2 272.866C746.268 267.117 754.967 261.25 757.2 251.2" stroke="var(--stroke-0, white)" stroke-opacity="0.25" stroke-width="0.4" stroke-linecap="round"/>
<path id="line 3" d="M137.2 46.5479C162.18 43.6848 186.847 42.0256 212.033 42.2146C235.023 42.3871 261.57 41.4573 282.589 52.6035C297.994 60.7728 309.946 73.7712 315.978 90.2701C320.61 102.94 322.065 116.801 327.533 129.215C332.148 139.691 340.663 151.922 348.756 160.103C362.495 173.994 384.67 182.274 403.7 184.992C423.872 187.874 444.986 184.165 465.2 183.603C488.83 182.947 510.669 184.884 531.311 197.326C544.121 205.047 552.177 217.919 563.589 227.548C576.901 238.78 595.645 245.458 611.756 251.326C637.47 260.691 663.706 265.535 690.978 267.659C708.268 269.006 726.061 268.296 743.2 265.659C753.612 264.057 762.637 261.317 771.2 255.215C779.268 249.465 787.967 243.598 790.2 233.548" stroke="var(--stroke-0, white)" stroke-opacity="0.25" stroke-width="0.4" stroke-linecap="round"/>
<path id="line 2" d="M169.2 25.5479C194.18 22.6848 218.847 21.0256 244.033 21.2146C267.023 21.3871 293.57 20.4573 314.589 31.6035C329.994 39.7728 341.946 52.7712 347.978 69.2701C352.61 81.9399 354.065 95.801 359.533 108.215C364.148 118.691 372.663 130.922 380.756 139.103C394.495 152.994 416.67 161.274 435.7 163.992C455.872 166.874 476.986 163.165 497.2 162.603C520.83 161.947 542.669 163.884 563.311 176.326C576.121 184.047 584.177 196.919 595.589 206.548C608.901 217.78 627.645 224.458 643.756 230.326C669.47 239.691 695.706 244.535 722.978 246.659C740.268 248.006 758.061 247.296 775.2 244.659C785.612 243.057 794.637 240.317 803.2 234.215C811.268 228.465 819.967 222.598 822.2 212.548" stroke="var(--stroke-0, white)" stroke-opacity="0.25" stroke-width="0.4" stroke-linecap="round"/>
<path id="line 1" d="M191.2 4.54792C216.18 1.68484 240.847 0.0255687 266.033 0.214585C289.023 0.387113 315.57 -0.542672 336.589 10.6035C351.994 18.7728 363.946 31.7712 369.978 48.2701C374.61 60.9399 376.065 74.801 381.533 87.2146C386.148 97.6908 394.663 109.922 402.756 118.103C416.495 131.994 438.67 140.274 457.7 142.992C477.872 145.874 498.986 142.165 519.2 141.603C542.83 140.947 564.669 142.884 585.311 155.326C598.121 163.047 606.177 175.919 617.589 185.548C630.901 196.78 649.645 203.458 665.756 209.326C691.47 218.691 717.706 223.535 744.978 225.659C762.268 227.006 780.061 226.296 797.2 223.659C807.612 222.057 816.637 219.317 825.2 213.215C833.268 207.465 841.967 201.598 844.2 191.548" stroke="var(--stroke-0, white)" stroke-opacity="0.25" stroke-width="0.4" stroke-linecap="round"/>
</g>
</svg>
