<svg preserveAspectRatio="none" width="100%" height="100%" overflow="visible" style="display: block;" viewBox="0 0 484 36.4383" fill="none" xmlns="http://www.w3.org/2000/svg">
<g id="Logo">
<g id="Visa">
<path id="Vector 2" d="M434.986 28.9025L438.826 6.37541H444.966L441.125 28.9025H434.986ZM463.28 6.8696C461.518 6.23134 459.656 5.91106 457.782 5.9237C451.723 5.9237 447.454 8.97524 447.418 13.3496C447.384 16.5827 450.466 18.386 452.792 19.4618C455.179 20.5652 455.981 21.2686 455.97 22.2536C455.955 23.7615 454.063 24.4499 452.301 24.4499C449.846 24.4499 448.543 24.1052 446.528 23.2696L445.738 22.9121L444.877 27.9486C446.31 28.5761 448.959 29.1209 451.708 29.1485C458.155 29.1485 462.339 26.1326 462.388 21.4617C462.411 18.9021 460.779 16.9539 457.239 15.3483C455.095 14.3139 453.783 13.6128 453.796 12.5588C453.796 11.6244 454.908 10.6246 457.309 10.6246C458.882 10.5893 460.445 10.8829 461.898 11.4866L462.447 11.7463L463.28 6.8696V6.8696ZM479.053 6.37541H474.329C472.866 6.37541 471.771 6.7754 471.128 8.23506L462.049 28.7876H468.511C468.511 28.7876 469.546 26.0545 469.784 25.4545L477.527 25.4637C477.707 26.2407 478.262 28.7876 478.262 28.7876H484L479.053 6.37541ZM471.542 20.8571C472.049 19.5607 473.986 14.5679 473.986 14.5679C473.949 14.6277 474.489 13.2645 474.798 12.4198L475.213 14.3599C475.213 14.3599 476.388 19.7308 476.633 20.8571H471.542ZM429.776 6.37541L423.786 21.6835L423.148 18.5722C422.033 14.9863 418.559 11.1015 414.674 9.15684L420.152 28.7876L426.625 28.7807L436.257 6.37541H429.746" fill="url(#paint0_linear_0_4)"/>
<path id="Vector 1" d="M417.926 6.3752H408.079L408 6.84297C415.694 8.70605 420.784 13.2069 422.898 18.6134L420.747 8.26932C420.376 6.84528 419.3 6.42002 417.968 6.3706" fill="url(#paint1_linear_0_4)"/>
</g>
<path id="Subtract" fill-rule="evenodd" clip-rule="evenodd" d="M2.15758 24.8652L2.15167 24.8731L2.14594 24.8813C1.82665 25.3333 1.1114 25.4662 0.552061 25.0711C0.104305 24.7549 -0.030295 24.0503 0.350983 23.4934C0.91987 22.7682 1.33302 21.9204 1.60438 21.0916C1.88689 20.2288 2.01828 19.2484 2.01316 18.2868C2.00804 17.3253 1.86621 16.3463 1.57454 15.4865C1.29436 14.6607 0.872207 13.8174 0.29563 13.0983C-0.0915573 12.5455 0.035531 11.8395 0.479894 11.5185C1.035 11.1175 1.75161 11.2427 2.07571 11.6914L2.08152 11.6994L2.08752 11.7073C2.80515 12.6536 3.39376 13.705 3.74551 14.7366C4.11576 15.95 4.35161 17.1238 4.35773 18.2743C4.36418 19.4851 4.24848 20.6311 3.8042 21.7592C3.32033 22.9878 2.85176 23.9293 2.15758 24.8652ZM7.34629 27.1124L7.36031 27.0925L7.37319 27.0719C8.96375 24.5236 9.88117 21.4485 9.86411 18.245C9.84705 15.0423 8.89741 11.978 7.28054 9.44706C6.93015 8.89141 7.08755 8.23444 7.67815 7.80781C8.0748 7.52128 8.81945 7.62273 9.26128 8.21484C11.0868 11.1112 12.1894 14.6124 12.2087 18.2325C12.2286 21.9763 11.1642 25.3639 9.36795 28.2813C8.95244 28.8532 8.31632 29.0135 7.76777 28.6893C7.17309 28.2536 7.06438 27.5115 7.34629 27.1124ZM16.6573 4.4079L16.673 4.43885L16.6911 4.46842C19.1647 8.50124 20.5393 13.153 20.5661 18.188C20.5929 23.2208 19.2692 27.8849 16.8408 31.9425C16.4685 32.5412 15.84 32.7099 15.2028 32.4134C14.6228 32.0354 14.467 31.4091 14.7699 30.7764C16.8352 27.1087 18.1194 22.7867 18.0949 18.2012C18.0706 13.6361 16.8769 9.321 14.6318 5.65302C14.328 5.02672 14.4784 4.40296 15.0515 4.02068C15.7429 3.6904 16.4164 3.93248 16.6573 4.4079ZM23.9815 0.569943L23.9922 0.591082L24.0041 0.611595C27.0016 5.79302 28.7627 11.7169 28.7969 18.1442C28.8311 24.5649 27.1367 30.5016 24.2001 35.7108C23.8272 36.3025 23.2016 36.4683 22.5674 36.1731C21.9893 35.7963 21.8326 35.1727 22.1317 34.5422C24.9607 29.7139 26.4841 24.1201 26.4524 18.1567C26.4205 12.1779 24.7035 6.60578 21.9609 1.82514C21.6173 1.12726 21.8594 0.443765 22.3391 0.200723C23.0432 -0.156017 23.7364 0.0861447 23.9815 0.569943Z" fill="url(#paint2_linear_0_4)"/>
</g>
<defs>
<linearGradient id="paint0_linear_0_4" x1="449.337" y1="5.92334" x2="449.337" y2="29.1485" gradientUnits="userSpaceOnUse">
<stop stop-color="white"/>
<stop offset="1" stop-color="white" stop-opacity="0.75"/>
</linearGradient>
<linearGradient id="paint1_linear_0_4" x1="415.449" y1="6.3706" x2="415.449" y2="18.6134" gradientUnits="userSpaceOnUse">
<stop stop-color="white"/>
<stop offset="1" stop-color="white" stop-opacity="0.75"/>
</linearGradient>
<linearGradient id="paint2_linear_0_4" x1="14.3501" y1="0.0764139" x2="14.5434" y2="36.3619" gradientUnits="userSpaceOnUse">
<stop stop-color="white" stop-opacity="0.73"/>
<stop offset="1" stop-color="white"/>
</linearGradient>
</defs>
</svg>
