<svg preserveAspectRatio="none" width="100%" height="100%" overflow="visible" style="display: block;" viewBox="0 0 59.0709 36.4641" fill="none" xmlns="http://www.w3.org/2000/svg">
<g id="Mastercard">
<foreignObject x="-24.4306" y="-24.4306" width="85.3248" height="85.3248"><div xmlns="http://www.w3.org/1999/xhtml" style="backdrop-filter:blur(12.22px);clip-path:url(#bgblur_0_0_4_clip_path);height:100%;width:100%"></div></foreignObject><circle id="Vector 3" data-figma-bg-blur-radius="24.4306" cx="18.2318" cy="18.2318" r="18.2318" fill="url(#paint0_linear_0_4)" fill-opacity="0.6"/>
<foreignObject x="-1.82331" y="-24.4301" width="85.3248" height="85.3248"><div xmlns="http://www.w3.org/1999/xhtml" style="backdrop-filter:blur(12.22px);clip-path:url(#bgblur_1_0_4_clip_path);height:100%;width:100%"></div></foreignObject><path id="Vector 2" data-figma-bg-blur-radius="24.4306" d="M59.0709 18.2323C59.0709 28.3014 50.9082 36.4641 40.8391 36.4641C30.77 36.4641 22.6073 28.3014 22.6073 18.2323C22.6073 8.16314 30.77 0.000488281 40.8391 0.000488281C50.9082 0.000488281 59.0709 8.16314 59.0709 18.2323Z" fill="url(#paint1_linear_0_4)" fill-opacity="0.8"/>
<foreignObject x="-1.82319" y="-20.5043" width="62.7174" height="77.4725"><div xmlns="http://www.w3.org/1999/xhtml" style="backdrop-filter:blur(12.22px);clip-path:url(#bgblur_2_0_4_clip_path);height:100%;width:100%"></div></foreignObject><path id="Vector 1" data-figma-bg-blur-radius="24.4306" d="M29.5355 3.92627C25.3152 7.26549 22.6074 12.4325 22.6074 18.2319C22.6074 24.0313 25.3152 29.1983 29.5355 32.5375C33.7558 29.1983 36.4636 24.0313 36.4636 18.2319C36.4636 12.4325 33.7558 7.26549 29.5355 3.92627Z" fill="url(#paint2_linear_0_4)" fill-opacity="0.6"/>
</g>
<defs>
<clipPath id="bgblur_0_0_4_clip_path" transform="translate(24.4306 24.4306)"><circle cx="18.2318" cy="18.2318" r="18.2318"/>
</clipPath><clipPath id="bgblur_1_0_4_clip_path" transform="translate(1.82331 24.4301)"><path d="M59.0709 18.2323C59.0709 28.3014 50.9082 36.4641 40.8391 36.4641C30.77 36.4641 22.6073 28.3014 22.6073 18.2323C22.6073 8.16314 30.77 0.000488281 40.8391 0.000488281C50.9082 0.000488281 59.0709 8.16314 59.0709 18.2323Z"/>
</clipPath><clipPath id="bgblur_2_0_4_clip_path" transform="translate(1.82319 20.5043)"><path d="M29.5355 3.92627C25.3152 7.26549 22.6074 12.4325 22.6074 18.2319C22.6074 24.0313 25.3152 29.1983 29.5355 32.5375C33.7558 29.1983 36.4636 24.0313 36.4636 18.2319C36.4636 12.4325 33.7558 7.26549 29.5355 3.92627Z"/>
</clipPath><linearGradient id="paint0_linear_0_4" x1="18.2318" y1="0" x2="18.2318" y2="36.4636" gradientUnits="userSpaceOnUse">
<stop stop-color="white" stop-opacity="0.71"/>
<stop offset="1" stop-color="white"/>
</linearGradient>
<linearGradient id="paint1_linear_0_4" x1="40.8391" y1="0.000488281" x2="40.8391" y2="36.4641" gradientUnits="userSpaceOnUse">
<stop stop-color="white" stop-opacity="0.45"/>
<stop offset="1" stop-color="white"/>
</linearGradient>
<linearGradient id="paint2_linear_0_4" x1="29.5355" y1="3.92627" x2="29.5355" y2="32.5375" gradientUnits="userSpaceOnUse">
<stop stop-color="white" stop-opacity="0.07"/>
<stop offset="1" stop-color="white"/>
</linearGradient>
</defs>
</svg>
