<svg preserveAspectRatio="none" width="100%" height="100%" overflow="visible" style="display: block;" viewBox="0 0 521.4 531.637" fill="none" xmlns="http://www.w3.org/2000/svg">
<g id="Vector">
<path id="Union 3" d="M274.535 57.3855C264.837 28.4508 237.733 8.9502 207.216 8.9502H137.184C106.667 8.9502 79.5636 28.4508 69.865 57.3855L7.56348 243.254C2.65535 257.897 2.65535 273.741 7.56348 288.383L69.865 474.252C79.5636 503.187 106.667 522.687 137.184 522.687H207.216C237.733 522.687 264.837 503.187 274.535 474.252L336.837 288.384C341.745 273.741 341.745 257.897 336.837 243.254L274.535 57.3855Z" fill="url(#paint0_linear_0_11)" fill-opacity="0.45"/>
<path id="Union 2" d="M376.535 48.4353C366.837 19.5006 339.733 0 309.216 0H233.184C202.667 0 175.564 19.5006 165.865 48.4353L100.563 243.254C95.6554 257.897 95.6554 273.741 100.563 288.383L165.865 483.202C175.564 512.137 202.667 531.637 233.184 531.637H309.216C339.733 531.637 366.837 512.137 376.535 483.202L441.837 288.383C446.745 273.741 446.745 257.897 441.837 243.254L376.535 48.4353Z" fill="url(#paint1_linear_0_11)"/>
<path id="Union 1" d="M451.535 57.3855C441.837 28.4508 414.733 8.9502 384.216 8.9502H314.184C283.667 8.9502 256.564 28.4508 246.865 57.3855L184.563 243.254C179.655 257.897 179.655 273.741 184.563 288.383L246.865 474.252C256.564 503.187 283.667 522.687 314.184 522.687H384.216C414.733 522.687 441.837 503.187 451.535 474.252L513.837 288.383C518.745 273.741 518.745 257.897 513.837 243.254L451.535 57.3855Z" fill="url(#paint2_linear_0_11)"/>
</g>
<defs>
<linearGradient id="paint0_linear_0_11" x1="172.2" y1="8.9502" x2="172.2" y2="522.687" gradientUnits="userSpaceOnUse">
<stop offset="0.0175187" stop-color="white" stop-opacity="0.71"/>
<stop offset="0.811699" stop-color="white" stop-opacity="0"/>
</linearGradient>
<linearGradient id="paint1_linear_0_11" x1="271.2" y1="0" x2="271.2" y2="531.637" gradientUnits="userSpaceOnUse">
<stop offset="0.0175187" stop-color="white" stop-opacity="0.71"/>
<stop offset="0.811699" stop-color="white" stop-opacity="0"/>
</linearGradient>
<linearGradient id="paint2_linear_0_11" x1="548" y1="56.9502" x2="75" y2="324.95" gradientUnits="userSpaceOnUse">
<stop offset="0.0175187" stop-color="white" stop-opacity="0.71"/>
<stop offset="0.811699" stop-color="white" stop-opacity="0"/>
</linearGradient>
</defs>
</svg>
