<svg preserveAspectRatio="none" width="100%" height="100%" overflow="visible" style="display: block;" viewBox="0 0 366.922 479.691" fill="none" xmlns="http://www.w3.org/2000/svg">
<g id="Vrector" opacity="0.4">
<path id="Vector 2" d="M57.1925 365.883C49.8783 365.98 42.7105 363.829 36.6582 359.721C30.6059 355.612 25.961 349.745 23.3507 342.912C20.7405 336.078 20.291 328.609 22.0631 321.512C23.8352 314.415 27.7434 308.033 33.2595 303.229L108.988 235.716L10.4695 136.769C3.7526 130.033 -0.0133623 120.905 3.56267e-05 111.392C0.0134336 101.88 3.80516 92.7623 10.541 86.0454C17.2769 79.3285 26.4051 75.5626 35.9176 75.576C45.4301 75.5894 54.5476 79.3811 61.2645 86.117L186.359 211.854C189.823 215.296 192.543 219.412 194.354 223.947C196.164 228.481 197.026 233.339 196.885 238.22C196.745 243.101 195.605 247.901 193.537 252.324C191.468 256.747 188.515 260.699 184.859 263.936L80.8397 356.81C74.3301 362.621 65.9185 365.849 57.1925 365.883V365.883Z" fill="url(#paint0_linear_0_15)" fill-opacity="0.5"/>
<path id="Vector 1" d="M126.634 479.689C119.509 479.759 112.526 477.698 106.582 473.769C100.638 469.84 96.0054 464.223 93.2786 457.64C90.5518 451.058 89.8557 443.81 91.2802 436.828C92.7046 429.847 96.1843 423.451 101.272 418.463L280.234 239.859L101.272 61.2541C94.5456 54.5183 90.7705 45.3863 90.7772 35.8671C90.7839 26.3479 94.5719 17.2211 101.308 10.4948C108.044 3.76839 117.176 -0.00669007 126.695 8.90039e-06C136.214 0.00670787 145.341 3.79467 152.067 10.5305L356.319 214.783C359.678 218.105 362.345 222.06 364.165 226.419C365.985 230.779 366.922 235.456 366.922 240.18C366.922 244.904 365.985 249.582 364.165 253.941C362.345 258.301 359.678 262.256 356.319 265.578L152.067 469.401C148.715 472.708 144.742 475.319 140.377 477.084C136.013 478.85 131.342 479.735 126.634 479.689V479.689Z" fill="url(#paint1_linear_0_15)" fill-opacity="0.5"/>
</g>
<defs>
<linearGradient id="paint0_linear_0_15" x1="98.4501" y1="75.5759" x2="276.352" y2="304.101" gradientUnits="userSpaceOnUse">
<stop stop-color="white"/>
<stop offset="1" stop-color="white" stop-opacity="0"/>
</linearGradient>
<linearGradient id="paint1_linear_0_15" x1="228.74" y1="-8.29551e-06" x2="530.81" y2="329.605" gradientUnits="userSpaceOnUse">
<stop stop-color="white"/>
<stop offset="1" stop-color="white" stop-opacity="0"/>
</linearGradient>
</defs>
</svg>
