<svg preserveAspectRatio="none" width="100%" height="100%" overflow="visible" style="display: block;" viewBox="0 0 366.922 479.691" fill="none" xmlns="http://www.w3.org/2000/svg">
<g id="Vector" opacity="0.4">
<path id="Vector 2" d="M57.1925 365.883C49.8783 365.979 42.7105 363.828 36.6582 359.72C30.606 355.612 25.961 349.745 23.3508 342.911C20.7405 336.078 20.291 328.608 22.0631 321.511C23.8352 314.414 27.7434 308.032 33.2595 303.228L108.988 235.716L10.4695 136.769C3.75261 130.033 -0.0133527 120.904 4.52589e-05 111.392C0.0134432 101.879 3.80517 92.7618 10.541 86.0449C17.2769 79.328 26.4051 75.5621 35.9176 75.5755C45.4301 75.5889 54.5476 79.3806 61.2645 86.1164L186.359 211.854C189.823 215.296 192.543 219.411 194.354 223.946C196.164 228.481 197.026 233.339 196.885 238.219C196.745 243.1 195.605 247.9 193.537 252.323C191.468 256.746 188.515 260.698 184.859 263.935L80.8397 356.809C74.3301 362.621 65.9185 365.848 57.1925 365.883V365.883Z" fill="url(#paint0_linear_0_12)" fill-opacity="0.5"/>
<path id="Vector 1" d="M126.634 479.689C119.509 479.759 112.526 477.698 106.582 473.769C100.638 469.84 96.0054 464.223 93.2786 457.64C90.5518 451.058 89.8558 443.81 91.2802 436.828C92.7046 429.847 96.1843 423.451 101.272 418.463L280.234 239.859L101.272 61.2541C94.5456 54.5183 90.7705 45.3863 90.7772 35.8671C90.7839 26.3479 94.5719 17.2211 101.308 10.4948C108.044 3.76839 117.176 -0.00669007 126.695 8.90039e-06C136.214 0.00670787 145.341 3.79467 152.067 10.5305L356.319 214.783C359.678 218.105 362.345 222.06 364.165 226.419C365.985 230.779 366.922 235.456 366.922 240.18C366.922 244.904 365.985 249.582 364.165 253.941C362.345 258.301 359.678 262.256 356.319 265.578L152.067 469.401C148.715 472.708 144.742 475.319 140.377 477.084C136.013 478.85 131.342 479.735 126.634 479.689V479.689Z" fill="url(#paint1_linear_0_12)" fill-opacity="0.5"/>
</g>
<defs>
<linearGradient id="paint0_linear_0_12" x1="98.4501" y1="75.5754" x2="225.118" y2="268.525" gradientUnits="userSpaceOnUse">
<stop stop-color="white"/>
<stop offset="1" stop-color="white" stop-opacity="0"/>
</linearGradient>
<linearGradient id="paint1_linear_0_12" x1="228.74" y1="0" x2="449.48" y2="285.623" gradientUnits="userSpaceOnUse">
<stop stop-color="white"/>
<stop offset="1" stop-color="white" stop-opacity="0"/>
</linearGradient>
</defs>
</svg>
