<svg preserveAspectRatio="none" width="100%" height="100%" overflow="visible" style="display: block;" viewBox="0 0 71.5 21.8501" fill="none" xmlns="http://www.w3.org/2000/svg">
<g id="Visa">
<path id="Vector 2" d="M25.3883 21.6186L29.0009 0.425356H34.7771L31.1635 21.6186H25.3883ZM52.0064 0.890289C50.3487 0.289817 48.5976 -0.0114931 46.8346 0.000389767C41.1341 0.000389767 37.1181 2.87125 37.0835 6.98664C37.0522 10.0283 39.9511 11.7248 42.1396 12.7369C44.3855 13.7749 45.1402 14.4367 45.1294 15.3634C45.1154 16.782 43.3356 17.4297 41.678 17.4297C39.3683 17.4297 38.1421 17.1054 36.2466 16.3193L35.5038 15.9829L34.6939 20.7212C36.0412 21.3116 38.5335 21.8241 41.12 21.8501C47.1849 21.8501 51.1219 19.0127 51.1673 14.6183C51.189 12.2103 49.6535 10.3775 46.3232 8.86697C44.3066 7.89381 43.0717 7.23422 43.0847 6.24268C43.0847 5.36359 44.1303 4.42291 46.3891 4.42291C47.8691 4.38978 49.3397 4.66599 50.7067 5.23388L51.2236 5.47822L52.0064 0.890289ZM66.846 0.425356H62.4019C61.0254 0.425356 59.995 0.801664 59.3905 2.1749L50.8483 21.5105H56.9284C56.9284 21.5105 57.9016 18.9392 58.1254 18.3748L65.4101 18.3834C65.5799 19.1144 66.1021 21.5105 66.1021 21.5105H71.4999L66.846 0.425356ZM59.7798 14.0496C60.2566 12.8299 62.0786 8.13277 62.0786 8.13277C62.044 8.189 62.5522 6.90659 62.8431 6.11184L63.2334 7.9371C63.2334 7.9371 64.3385 12.9899 64.5688 14.0496H59.7798ZM20.4868 0.425356L14.8511 14.8271L14.251 11.9C13.2021 8.52639 9.9334 4.87164 6.27864 3.0421L11.4321 21.5105L17.5219 21.504L26.5842 0.425356H20.4587" fill="url(#paint0_linear_0_4)"/>
<path id="Vector 1" d="M9.33801 0.425543H0.0746027L0 0.865609C7.23816 2.61838 12.0271 6.85273 14.0156 11.9391L11.9926 2.20751C11.6433 0.867788 10.6312 0.467709 9.37803 0.421214" fill="url(#paint1_linear_0_4)"/>
</g>
<defs>
<linearGradient id="paint0_linear_0_4" x1="38.8893" y1="5.15366e-05" x2="38.8893" y2="21.8501" gradientUnits="userSpaceOnUse">
<stop stop-color="white"/>
<stop offset="1" stop-color="white" stop-opacity="0.75"/>
</linearGradient>
<linearGradient id="paint1_linear_0_4" x1="7.00782" y1="0.421214" x2="7.00782" y2="11.9391" gradientUnits="userSpaceOnUse">
<stop stop-color="white"/>
<stop offset="1" stop-color="white" stop-opacity="0.75"/>
</linearGradient>
</defs>
</svg>
